<?xml version="1.0" encoding="UTF-8" standalone="no"?>
<!-- Created with Inkscape (http://www.inkscape.org/) -->

<svg
   width="22"
   height="22"
   viewBox="0 0 22 22"
   version="1.1"
   id="svg8"
   inkscape:version="1.3.2 (091e20ef0f, 2023-11-25)"
   sodipodi:docname="start.svg"
   xmlns:inkscape="http://www.inkscape.org/namespaces/inkscape"
   xmlns:sodipodi="http://sodipodi.sourceforge.net/DTD/sodipodi-0.dtd"
   xmlns:xlink="http://www.w3.org/1999/xlink"
   xmlns="http://www.w3.org/2000/svg"
   xmlns:svg="http://www.w3.org/2000/svg"
   xmlns:rdf="http://www.w3.org/1999/02/22-rdf-syntax-ns#"
   xmlns:cc="http://creativecommons.org/ns#"
   xmlns:dc="http://purl.org/dc/elements/1.1/">
  <sodipodi:namedview
     id="base"
     pagecolor="#d1d1d1"
     bordercolor="#666666"
     borderopacity="1.0"
     inkscape:pageopacity="0"
     inkscape:pageshadow="2"
     inkscape:zoom="13.604167"
     inkscape:cx="4.4104134"
     inkscape:cy="5.7702908"
     inkscape:document-units="px"
     inkscape:current-layer="layer1"
     showgrid="true"
     units="px"
     inkscape:pagecheckerboard="true"
     inkscape:showpageshadow="false"
     inkscape:snap-bbox="true"
     inkscape:bbox-nodes="true"
     inkscape:snap-object-midpoints="true"
     inkscape:bbox-paths="true"
     showguides="true"
     inkscape:guide-bbox="true"
     fit-margin-top="0"
     fit-margin-left="0"
     fit-margin-right="0"
     fit-margin-bottom="0"
     inkscape:snap-nodes="true"
     inkscape:snap-others="false"
     inkscape:object-paths="true"
     inkscape:snap-intersection-paths="true"
     inkscape:snap-global="false"
     inkscape:deskcolor="#d1d1d1"
     borderlayer="false">
    <inkscape:grid
       type="xygrid"
       id="grid834"
       originx="73.999947"
       originy="60.999832"
       spacingy="1"
       spacingx="1"
       units="px"
       visible="true" />
    <sodipodi:guide
       position="90.999945,13.99998"
       orientation="1,0"
       id="guide2015"
       inkscape:locked="false" />
  </sodipodi:namedview>
  <defs
     id="defs2">
    <linearGradient
       inkscape:collect="always"
       id="linearGradient51">
      <stop
         style="stop-color:#283c46;stop-opacity:1;"
         offset="0"
         id="stop50" />
      <stop
         style="stop-color:#21475f;stop-opacity:1;"
         offset="1"
         id="stop51" />
    </linearGradient>
    <linearGradient
       inkscape:collect="always"
       id="linearGradient854">
      <stop
         style="stop-color:#104e7b;stop-opacity:1"
         offset="0"
         id="stop849" />
      <stop
         style="stop-color:#1772b4;stop-opacity:1;"
         offset="1"
         id="stop852" />
    </linearGradient>
    <linearGradient
       inkscape:collect="always"
       id="linearGradient1763">
      <stop
         style="stop-color:#f8fcfc;stop-opacity:1"
         offset="0"
         id="stop1759" />
      <stop
         id="stop1769"
         offset="0.48297125"
         style="stop-color:#7ccced;stop-opacity:0.49561402" />
      <stop
         style="stop-color:#19d5fb;stop-opacity:1"
         offset="1"
         id="stop1761" />
    </linearGradient>
    <radialGradient
       inkscape:collect="always"
       xlink:href="#linearGradient892"
       id="radialGradient896"
       cx="17.280622"
       cy="99.090614"
       fx="17.280622"
       fy="99.090614"
       r="7.000001"
       gradientTransform="matrix(1.1745201,-0.97795453,1.1135433,1.0778741,-193.55935,1076.9849)"
       gradientUnits="userSpaceOnUse" />
    <linearGradient
       inkscape:collect="always"
       id="linearGradient892">
      <stop
         style="stop-color:#15b7d8;stop-opacity:0.82017541;"
         offset="0"
         id="stop888" />
      <stop
         id="stop1494"
         offset="0.38759074"
         style="stop-color:#19d5fb;stop-opacity:0.56129032;" />
      <stop
         style="stop-color:#1480c4;stop-opacity:1;"
         offset="0.70078248"
         id="stop1496" />
      <stop
         style="stop-color:#0f4b75;stop-opacity:0.00438596"
         offset="1"
         id="stop890" />
    </linearGradient>
    <linearGradient
       inkscape:collect="always"
       xlink:href="#linearGradient1763"
       id="linearGradient1765"
       x1="-79.570107"
       y1="1100.2456"
       x2="-79.585823"
       y2="1127.7935"
       gradientUnits="userSpaceOnUse"
       gradientTransform="matrix(0.62903684,0,0,0.6290352,-12.991515,457.76209)" />
    <linearGradient
       inkscape:collect="always"
       xlink:href="#linearGradient1783"
       id="linearGradient1785"
       x1="-79.460182"
       y1="1100.0781"
       x2="-79.460182"
       y2="1114.2285"
       gradientUnits="userSpaceOnUse"
       gradientTransform="matrix(0.58928565,0,0,0.61770643,-16.151733,470.39457)" />
    <linearGradient
       inkscape:collect="always"
       id="linearGradient1783">
      <stop
         style="stop-color:#96b8d9;stop-opacity:0.80784315"
         offset="0"
         id="stop1779" />
      <stop
         style="stop-color:#007ef2;stop-opacity:0.00392157"
         offset="1"
         id="stop1781" />
    </linearGradient>
    <linearGradient
       inkscape:collect="always"
       xlink:href="#linearGradient51"
       id="linearGradient1838"
       x1="-78.917465"
       y1="1129.6765"
       x2="-78.917465"
       y2="1098.4784"
       gradientUnits="userSpaceOnUse"
       gradientTransform="matrix(0.66532247,0,0,0.66532072,-10.106808,417.3393)" />
    <linearGradient
       inkscape:collect="always"
       xlink:href="#linearGradient854"
       id="linearGradient857"
       x1="-56.059765"
       y1="1147.7292"
       x2="-56.059765"
       y2="1175.5015"
       gradientUnits="userSpaceOnUse"
       gradientTransform="matrix(0.68749992,0,0,0.68749812,-24.499948,359.97704)" />
    <linearGradient
       inkscape:collect="always"
       xlink:href="#linearGradient8053"
       id="linearGradient8055"
       x1="-65.107353"
       y1="1150.9349"
       x2="-46.892666"
       y2="1170.1941"
       gradientUnits="userSpaceOnUse"
       gradientTransform="matrix(0.68749992,0,0,0.68749812,-24.499945,359.97704)" />
    <linearGradient
       inkscape:collect="always"
       id="linearGradient8053">
      <stop
         style="stop-color:#ffffff;stop-opacity:0.43483886;"
         offset="0"
         id="stop8049" />
      <stop
         style="stop-color:#ffffff;stop-opacity:0.56615365;"
         offset="1"
         id="stop8051" />
    </linearGradient>
  </defs>
  <style
     id="current-color-scheme"
     type="text/css">
      .ColorScheme-Text {
      }
      .ColorScheme-Background{
      }
      .ColorScheme-Highlight{
      }
      .ColorScheme-ViewText {
      }
      .ColorScheme-ViewBackground{
      }
      .ColorScheme-ViewHover {
      }
      .ColorScheme-ViewFocus{
      }
      .ColorScheme-ButtonText {
      }
      .ColorScheme-ButtonBackground{
      }
      .ColorScheme-ButtonHover {
      }
      .ColorScheme-ButtonFocus{
      }
    </style>
  <metadata
     id="metadata5">
    <rdf:RDF>
      <cc:Work
         rdf:about="">
        <dc:format>image/svg+xml</dc:format>
        <dc:type
           rdf:resource="http://purl.org/dc/dcmitype/StillImage" />
      </cc:Work>
    </rdf:RDF>
  </metadata>
  <g
     inkscape:label="Layer 1"
     inkscape:groupmode="layer"
     id="layer1"
     transform="translate(73.999947,-1147.5198)"
     style="display:inline">
    <rect
       style="fill:none;fill-opacity:0.236607;stroke:none;stroke-width:0.999995;stroke-miterlimit:4;stroke-dasharray:none;stroke-opacity:0.628099"
       id="rect882"
       width="22"
       height="22"
       x="-73.999947"
       y="1147.5197" />
    <ellipse
       ry="10.312473"
       rx="10.312499"
       style="fill:url(#linearGradient1838);fill-opacity:1;stroke:none;stroke-width:1.99999;stroke-miterlimit:4;stroke-dasharray:none;stroke-opacity:1"
       id="circle920"
       cx="-62.999943"
       cy="1158.5197" />
    <ellipse
       ry="9.6471949"
       rx="9.6472549"
       cy="1158.5197"
       cx="-62.99995"
       id="circle898"
       style="fill:url(#linearGradient857);fill-opacity:1;stroke:none;stroke-width:1.99999;stroke-miterlimit:4;stroke-dasharray:none;stroke-opacity:1" />
    <ellipse
       cy="1158.5197"
       cx="-62.999943"
       id="circle886"
       style="fill:url(#radialGradient896);fill-opacity:1;stroke:none;stroke-width:1.99999;stroke-miterlimit:4;stroke-dasharray:none;stroke-opacity:1"
       rx="8.3165741"
       ry="8.3165531" />
    <path
       id="path1757"
       d="m -54.350687,1158.5196 a 8.6492564,8.6492337 0 0 1 -8.649257,8.6492 8.6492564,8.6492337 0 0 1 -8.649256,-8.6492 8.6492564,8.6492337 0 0 1 8.649256,-8.6492 8.6492564,8.6492337 0 0 1 8.649257,8.6492 z"
       style="fill:none;fill-opacity:1;stroke:url(#linearGradient1765);stroke-width:1;stroke-linecap:round;stroke-linejoin:round;stroke-miterlimit:4;stroke-dasharray:none;stroke-opacity:1"
       inkscape:connector-curvature="0" />
    <path
       sodipodi:nodetypes="sssss"
       inkscape:connector-curvature="0"
       id="path1775"
       d="m -54.749943,1157.9094 c 0,2.1754 -3.693648,-0.9841 -8.249999,-0.9841 -4.556351,0 -8.249999,3.1917 -8.249999,0.9841 0,-4.2624 4.122765,-7.9701 8.119823,-8.0379 4.538927,-0.077 8.380175,4.0644 8.380175,8.0379 z"
       style="fill:url(#linearGradient1785);fill-opacity:1;stroke:none;stroke-width:0.499999;stroke-linecap:round;stroke-linejoin:round;stroke-miterlimit:4;stroke-dasharray:none;stroke-opacity:1" />
    <g
       style="fill:#000000;fill-opacity:0.428571;stroke-width:1.45455"
       transform="matrix(0.68749992,0,0,0.68749812,-23.525094,360.76519)"
       id="g913">
      <path
         id="path909"
         d="m -56.938235,1151.9576 -0.693904,2.7796 a 6.9099127,6.9099127 0 0 0 -2.096556,0.8608 l -2.452787,-1.4714 -1.220826,1.2228 1.473158,2.4548 a 6.9099127,6.9099127 0 0 0 -0.86831,2.0909 l -2.779329,0.6955 v 1.7276 l 2.779329,0.6938 a 6.9099127,6.9099127 0 0 0 0.859032,2.0965 l -1.471301,2.4525 1.222681,1.2209 2.452787,-1.4712 a 6.9099127,6.9099127 0 0 0 2.0947,0.8702 l 0.693908,2.7759 h 1.727337 l 0.693905,-2.7721 a 6.9099127,6.9099127 0 0 0 2.102123,-0.8647 l 2.449075,1.4696 1.220826,-1.2248 -1.469445,-2.447 a 6.9099127,6.9099127 0 0 0 0.87202,-2.1002 l 2.771909,-0.6939 v -1.7275 l -2.771909,-0.6921 a 6.9099127,6.9099127 0 0 0 -0.864596,-2.1022 l 1.467588,-2.4491 -1.222683,-1.2205 -2.450929,1.4712 a 6.9099127,6.9099127 0 0 0 -2.096559,-0.8683 l -0.693903,-2.7776 z m 0.86089,4.7498 a 4.7497211,4.7497211 0 0 1 4.74972,4.7497 4.7497211,4.7497211 0 0 1 -4.74972,4.7498 4.7497211,4.7497211 0 0 1 -4.749723,-4.7498 4.7497211,4.7497211 0 0 1 4.749723,-4.7497 z"
         style="opacity:1;fill:#000000;fill-opacity:0.57788944;stroke:none;stroke-width:2.78101;stroke-linecap:round;stroke-linejoin:round;stroke-miterlimit:4;stroke-dasharray:none;stroke-opacity:1"
         inkscape:connector-curvature="0" />
      <circle
         r="2.3009787"
         style="opacity:0.9;fill:#000000;fill-opacity:0.57788944;stroke:none;stroke-width:1.34725;stroke-linecap:round;stroke-linejoin:round;stroke-miterlimit:4;stroke-dasharray:none;stroke-opacity:1"
         id="circle911"
         cx="-56.097733"
         cy="1161.4406" />
    </g>
    <path
       id="path2007"
       d="m -63.571059,1152.0054 -0.477058,1.9109 a 4.7505644,4.750552 0 0 0 -1.441382,0.5919 l -1.686292,-1.0115 -0.839317,0.8407 1.012795,1.6874 a 4.7505644,4.750552 0 0 0 -0.596962,1.4376 l -1.91079,0.4782 v 1.1877 l 1.91079,0.4771 a 4.7505644,4.750552 0 0 0 0.590583,1.4412 l -1.011519,1.6865 0.840592,0.8391 1.686293,-1.0114 a 4.7505644,4.750552 0 0 0 1.440107,0.5982 l 0.477058,1.9083 h 1.187547 l 0.477059,-1.9057 a 4.7505644,4.750552 0 0 0 1.44521,-0.5945 l 1.683737,1.0103 0.839319,-0.8419 -1.010243,-1.6824 a 4.7505644,4.750552 0 0 0 0.599513,-1.444 l 1.905686,-0.477 v -1.1876 l -1.905686,-0.4759 a 4.7505644,4.750552 0 0 0 -0.59441,-1.445 l 1.008967,-1.6837 -0.840593,-0.8394 -1.685016,1.0116 a 4.7505644,4.750552 0 0 0 -1.441383,-0.597 l -0.477059,-1.9097 z m 0.59186,3.2655 a 3.2654329,3.2654243 0 0 1 3.265433,3.2655 3.2654329,3.2654243 0 0 1 -3.265433,3.2654 3.2654329,3.2654243 0 0 1 -3.265433,-3.2654 3.2654329,3.2654243 0 0 1 3.265433,-3.2655 z"
       style="fill:#ffffff;fill-opacity:1;stroke:none;stroke-width:1.91194;stroke-linecap:round;stroke-linejoin:round;stroke-miterlimit:4;stroke-dasharray:none;stroke-opacity:1"
       inkscape:connector-curvature="0" />
    <ellipse
       style="fill:#f7ffff;fill-opacity:1;stroke:none;stroke-width:0.926233;stroke-linecap:round;stroke-linejoin:round;stroke-miterlimit:4;stroke-dasharray:none;stroke-opacity:1"
       id="circle1868"
       cx="-62.965183"
       cy="1158.5476"
       rx="1.5819227"
       ry="1.5819185" />
    <ellipse
       ry="9.6471949"
       rx="9.6472549"
       cy="1158.5197"
       cx="-62.99995"
       id="ellipse8047"
       style="display:inline;opacity:0.3;fill:url(#linearGradient8055);fill-opacity:1;stroke:none;stroke-width:1.99999;stroke-miterlimit:4;stroke-dasharray:none;stroke-opacity:1" />
  </g>
</svg>
